<?xml version="1.0" encoding="utf-8"?>
<!-- Generator: Adobe Illustrator 19.0.0, SVG Export Plug-In . SVG Version: 6.00 Build 0)  -->
<svg version="1.1" xmlns="http://www.w3.org/2000/svg" xmlns:xlink="http://www.w3.org/1999/xlink" x="0px" y="0px"
	 viewBox="0 0 432 155.8" style="enable-background:new 0 0 432 155.8;" xml:space="preserve">
<style type="text/css">
	.st0{fill:#E73840;}
</style>
<g id="Layer_2">
</g>
<g id="Layer_3">
</g>
<g id="Layer_4">
	<path class="st0" d="M352.1,105c-39.5,0.9-78.5,5.1-117.2,10.4c-18.5,2.5-36.9,5.3-55.3,8.1c-18.7,2.8-37.4,5.9-55.2,10.3
		c-8.4,2.1,3.3,9.1,10.8,7.2c16.7-4.2,34.2-7,51.8-9.7c17.8-2.7,35.6-5.4,53.5-7.9c37.9-5.2,76.4-9.6,115.1-10.5
		C367,112.7,360.4,104.8,352.1,105z"/>
	<path class="st0" d="M133.5,40.7c0-10.7-13.8-22.7-30.9-22.7c-36.4,0-82.1,26.2-82.1,40.8c0,5.9,3.8,12,7.6,12
		c6.5,0,8.5-2.3,8.5-6.8c0-3.2,11-9.5,24.8-15.3c-14.7,23.6-40.9,66.2-40.9,69.1c0,8.5,4.5,10.8,10.7,10.8
		c4.5,0,15.5-17.2,26.8-36.9c1.1-0.2,2.1-0.4,3.2-0.6c10.3,19.2,34,62.1,40.8,62.1c8.8,0,12.4-4,12.4-9.2c0-4.8-29.4-43.8-33.7-58.9
		C107.5,74.3,133.5,54.2,133.5,40.7z M86.3,39.9c16.8-4.8,31.4-6.4,31.4,0.7c0,8.9-29.5,22.8-48,30C76.6,57.8,82.7,46.2,86.3,39.9z"
		/>
	<path class="st0" d="M411.4,69c-1-4.3-7.1-4.5-10.4-3.6c-2.7,0.8-5.8,2.8-6.7,5.5c-1,0.5-2,1-3.1,1.5c-0.2,0.1-0.7,0.3-1,0.4
		c-0.5,0.2-1.1,0.4-1.6,0.6c-1.5,0.5-3,0.9-4.6,1.3c-0.7,0.2-1.4,0.3-2.1,0.5c-0.1,0-0.3,0-0.5,0.1c-0.4,0.1-0.7,0.1-1.1,0.1
		c0-0.1,0-0.2,0-0.3c-0.1-0.8-0.1-0.5-0.1-1.8c0-1,0.1-1.9,0.3-2.9c0.5-3.4,2.2-7.2,3.9-10.8c3.2-6.6,7.8-12.4,11-19
		c1.1-2.2,0.2-4.8-1.8-6.1c-3.2-2.2-7.3-1.4-10.6,0c-4.2,1.7-7.9,4.4-12,6.3c0.8-0.4-2.1,0.6-2.6,0.8c-0.1,0-0.1,0-0.2,0.1
		c-0.1,0-0.3,0-0.5,0.1c-0.2,0-1.4,0-1.5,0.1c-0.5,0-1-0.1-1.5-0.2c1.2,0.2-1.2-0.5-1.2-0.5c-0.5-0.2-1.7-1-2.7-1.8
		c-0.3-0.3-0.6-0.5-0.9-0.8c0,0,0,0-0.1,0c-2.5-2.1-6.4-1.9-9.7-0.4c-2.4,0.9-4.5,2.5-5.2,4.7c-1.3,3.7-2.7,7.3-4.4,10.8
		c-1.4,3.1-3.3,6.5-4.7,8.7c-1.6,2.4-3.4,4.8-5.3,7c-0.9,1-1.8,2-2.7,2.9c0,0.1-0.1,0.1-0.1,0.1c-0.1,0.1-0.1,0.1-0.2,0.2
		c-0.6,0.6-1.2,1.1-1.8,1.6c-1.6,1.4-3.4,2.7-5.1,3.9c-0.4,0.3-0.8,0.5-1.3,0.7c-0.9,0.5-1.9,1-2.9,1.5c-0.6,0.3-1.2,0.6-1.8,0.8
		c-0.3,0.1-0.5,0.2-0.8,0.3c-1.3,0.5-2.7,0.8-4,1.1c-0.3,0-0.5,0.1-0.8,0.1c-0.6,0.1-1.2,0.1-1.9,0.2c-0.3,0-1,0-1.2,0
		c-0.5,0-1.1-0.1-1.6-0.1c-0.2,0-0.9-0.2-1.2-0.2c-0.4-0.1-0.7-0.2-1-0.4c-0.1,0-0.1-0.1-0.2-0.1c1-0.6,2-1.2,3.1-1.8
		c3.3-1.9,6.5-3.8,9.7-5.8c7.8-5,17.5-12.6,14.1-23c-3-9.3-10.9-14.1-20.6-11.9c-7.3,1.6-13.1,7.3-17.8,12.8
		c-3.3,3.9-6,8.3-7.6,13.1c-1.6,4.7-2.5,10.1-1.7,15c-0.2,0.2-0.5,0.3-0.7,0.5c-0.6,0.4-1.1,0.8-1.7,1.2c0,0,0,0-0.1,0
		c-0.1,0.1-0.3,0.2-0.5,0.3c-1.3,0.8-2.6,1.5-3.9,2.2c-0.7,0.4-1.3,0.7-2,1c-0.3,0.1-1.7,0.7-2,0.8c-1,0.4-2.1,0.6-3.2,0.9
		c2-0.5-3,0-1.7,0.1c-0.4,0-0.8-0.1-1.2-0.1c0.8,0.1-0.1-0.1-0.7-0.2c3.3-5.2,6-10.8,8.9-16c6.3-11.4,12.5-22.9,18.7-34.3
		c3.2-0.8,6.3-1.6,9.4-2.5c14.2-3.8,29.1-7.8,42.4-14.7c2.5-1.3,6.6-5,4.1-8.5c-2.5-3.4-7.9-2.4-10.9-0.8c-1.8,0.9-3.6,1.7-5.4,2.5
		c-0.4,0.1-1.2,0.5-1.5,0.6c-0.8,0.3-1.5,0.6-2.3,0.9c-1.6,0.6-3.3,1.2-5,1.8c-7.4,2.6-15,4.8-22.5,6.9c-0.3,0.1-0.7,0.2-1,0.3
		c2.4-4.4,4.7-8.7,7.1-13.1c2.1-3.9-2.1-7-5.5-7.4c-4.4-0.5-9.1,1.6-11.2,5.6c-3.6,6.6-7.1,13.1-10.7,19.7c-0.3,0.1-0.6,0.1-0.9,0.2
		c-3.6,0.7-7.1,1.2-10.7,1.7c-1.6,0.2-3.1,0.3-4.7,0.4c-0.6,0-1.3,0.1-1.9,0.1c-0.1,0-0.3,0-0.5,0c-3.8-0.1-8.6,1.2-10.6,5.3
		c-1.9,3.8,1.6,6.6,4.7,6.6c5.9,0.1,11.8-0.4,17.7-1.3c-5.7,10.5-11.4,21-17.2,31.4c-1,1.9-2.1,3.7-3.1,5.5c-0.8,1.3-1.5,2.7-2.3,4
		c-0.4,0.7-0.8,1.4-1.3,2.1c-0.2,0.4-0.4,0.6-0.4,0.7c-0.2,0.3-0.3,0.5-0.5,0.8c-0.8,1.3-1.7,2.5-2.7,3.6c-1.1,1.4-1.4,1.6-3,2.8
		c-0.1,0.1-1.4,1-1.3,1c-0.5,0.3-1,0.5-1.4,0.8c-0.2,0.1-0.7,0.3-1.1,0.5c-0.1-0.3-0.1-0.5-0.2-0.8c0-0.1,0-0.1,0-0.2
		c0-0.4,0-0.9,0.1-1.3c0,0.2,0.5-1.5,0.7-1.9c1.1-2.5,2.5-4.9,3.9-7.3c3.2-5.8,6.9-11.4,8.4-18c0.5-2.5,0-5.7-1.9-7.4
		c-3.4-3.2-7.6-3.4-12.1-3.2c-3.2,0.2-6.3,0.7-9.3,1.6c6.9-12.2,13.5-24.5,20.6-36.6c2.2-3.9-2.1-7-5.5-7.4
		c-4.5-0.5-8.9,1.7-11.2,5.6c-7.5,12.9-14.6,26-21.9,39.1c-2.7,4.8-5.5,9.5-8.3,14.2c-0.2,0.3-0.9,1.4-1.1,1.8
		c-0.5,0.8-1,1.5-1.5,2.3c-1.5,2.3-3,4.5-4.7,6.7c-1.7,2.2-3.4,4.4-5.2,6.4c-0.8,0.9-1.7,1.8-2.5,2.7c0,0-1,0.9-1.1,1
		c-0.7,0.7-1.5,1.3-2.2,2c-1.1,1-2.3,1.9-3.5,2.7c-0.4,0.3-0.9,0.6-1.4,0.9c0.6-0.4-0.9,0.6-1.1,0.7c-1.3,0.8-2.6,1.4-4,2.1
		c-0.2,0.1-1,0.4-1.3,0.5c-0.7,0.2-1.4,0.5-2.2,0.7c-0.5,0.1-1,0.3-1.5,0.4c0.6-0.2-1.2,0.2-1.4,0.3c-0.8,0.1-1.6,0.2-2.4,0.2
		c0,0-0.1,0-0.1,0c-0.1,0-0.2,0-0.3,0c0,0,0,0-0.1,0c-0.3-0.2-0.5-0.5-0.4-0.3c-1-1.1-1-1.5-1.5-3.2c-0.6-1.8-0.6-3.7-0.4-5.6
		c0-0.1,0.1-0.1,0.1-0.2c0.3-1,0.6-2,0.7-3.1c1.1-3.4,3.1-6.5,5.1-9.1c0.6-0.8,1.4-1.6,2.1-2.3c-0.5,0.5,1.4-1.1,1.6-1.3
		c0.4-0.3,0.6-0.4,0.6-0.4c0.2-0.1,0.4-0.2,0.6-0.3c0.2-0.1,0.4-0.2,0.6-0.3c0.1,0,0.2-0.1,0.4-0.1c0.1,0,0.2,0,0.2-0.1
		c0.2,0,0.3,0,0.5,0l0,0c-1.9,0.2,0.4,0.3,0.4,0.2c0.5,0.2,1.2,0.5,1.1,0.4c0.7,0.5,1.9,1.3,2,1.4c3.2,3.1,7.9,3.2,11.9,1.2
		c2.7-1.3,7.2-6.1,3.9-9.2c-6.2-5.9-13.7-8.1-22.1-6.2c-7.6,1.7-14.2,6.8-18.9,12.9c-2.9,3.7-5.4,8-6.9,12.5
		c-0.3,0.6-0.5,1.2-0.5,1.9c-0.1,0.6-0.3,1.2-0.4,1.7c-0.1,0.2-0.2,0.5-0.3,0.6c-0.3,0.4-0.6,0.7-0.8,1c-0.2,0.2-0.4,0.4-0.6,0.6
		c-0.2,0.2-0.3,0.3-0.4,0.4c-1.5,1.4-3.2,2.7-5,3.9c-0.5,0.4-1,0.7-1.5,1c0,0,0,0,0,0c-0.1,0-0.1,0.1-0.2,0.1
		c-1.1,0.7-2.2,1.3-3.3,1.9c-2,1.1-4.1,2.2-6.2,3.2c-0.5,0.2-1,0.5-1.6,0.7c1.1-2.2,2.3-4.3,3.5-6.5c4.8-8.7,9.8-17.3,14.8-25.9
		c2.2-3.9-2.1-7-5.5-7.4c-4.5-0.5-8.9,1.7-11.2,5.6c-5.6,9.6-11.2,19.2-16.4,29c-2,3.8-4.2,7.6-5.6,11.7c-0.6,1.8-1.1,3.5-0.7,5.4
		c0.7,3,4.3,4.2,6.9,4.6c4.3,0.5,8.9-0.9,13-2.3c5.2-1.8,10.4-4.1,15.3-6.7c2.9-1.5,5.7-3.2,8.4-4.9c2.2,3.5,5.6,6.1,10.2,6.7
		c7.8,1.1,16.1-1.4,23.2-4.4c1.1-0.5,2.2-1,3.3-1.6c2.1,5.5,14.7,4.2,16.8-2.1c1.5-4.6,3.6-9.1,5.8-13.4c1-1.9,2.1-3.8,3.2-5.6
		c0,0,0,0,0,0c0-0.1,0.1-0.2,0.2-0.3c0.3-0.5,0.6-1,1-1.5c0.8-1.2,1.6-2.3,2.4-3.4c1.5-2,3-3.9,4.7-5.7c0.4-0.5,0.8-0.9,1.3-1.3
		c0.1-0.1,0.2-0.2,0.3-0.3c1.1-1,2.2-1.9,3.3-2.8c0.9-0.7,1.8-1.3,2.7-1.9c-1.1,0.8,1.7-0.9,2.3-1.2c0.6-0.3,1.1-0.5,1.7-0.8
		c0,0,0.1,0,0.1-0.1c1.2-0.4,2.4-0.8,3.6-1v0c-0.3,0.1-0.3,0.1,0,0.1c-0.1,0.2-0.1,0.3-0.1,0.3c-0.3,0.9-0.8,1.8-1.2,2.7
		c-4.4,9.1-13.4,18.6-10.7,29.4c1.6,6.4,8,7.6,13.6,7.7c6.8,0.1,13.8-3.7,19.1-7.6c0.4-0.3,0.8-0.7,1.3-1c10.5,3.8,22.6-0.1,32.4-6
		c0.6-0.3,1.1-0.7,1.7-1.1c0.3,0.2,0.6,0.4,1,0.7c6,3.7,13.8,4.2,20.7,3c8.5-1.5,16.2-4.8,23.3-9.6c11.3-7.6,19.5-19.1,25.1-31.5
		c3.9,0.8,8,0.7,12.1-0.1c-1.5,2.6-2.9,5.3-4.1,8.1c-3,7.3-6.8,22.4,3.7,25.5c7.9,2.4,17.4-0.4,24.8-3.1
		C400.4,82.5,413.3,77.7,411.4,69z M172.8,75.3c0,0-0.1,0-0.1,0l0,0C172.7,75.3,172.7,75.3,172.8,75.3z M141.5,94
		C141.7,93.7,141.6,93.8,141.5,94L141.5,94z M235.3,94.4C235.3,94.4,235.3,94.4,235.3,94.4C235.3,94.4,235.3,94.4,235.3,94.4
		L235.3,94.4z M237.1,95.4L237.1,95.4C237.1,95.4,237.1,95.4,237.1,95.4C237.1,95.4,237.1,95.4,237.1,95.4z M310.6,52
		C310.6,52,310.7,52,310.6,52C310.5,52,310.6,52,310.6,52z M298.9,68.8c0-0.1,0.1-0.3,0.1-0.4c-0.2,0.8,0.5-1.7,0.7-2.2
		c0.4-1.1,0.9-2.2,1.4-3.3c0.3-0.7,0.7-1.3,1-2c-0.5,1,1.2-1.7,1.5-2c2.2-2.8,3.6-4.5,6-6.3c0.2,0.3,0.4,0.5,0.6,0.8
		c0.2,0.2,0.5,0.9,0.7,1.2c0.3,0.7,0.6,1.4,0.8,2.2c0.1,0.4,0.3,1.4,0.3,1.6c0,0,0,0,0,0.1c0-0.2-0.2,0.6-0.4,0.9
		c0,0.1-0.1,0.1-0.2,0.2c-0.3,0.4-0.7,0.9-1.1,1.3c0.2-0.3-0.8,0.7-0.9,0.9c-0.5,0.5-1.1,0.9-1.6,1.3c-1.2,0.9-2.4,1.7-3.6,2.5
		c-0.1,0-0.1,0.1-0.2,0.1c-0.1,0.1-0.3,0.2-0.5,0.3c-0.6,0.4-1.3,0.8-2,1.2C300.7,67.8,299.8,68.3,298.9,68.8z M393.9,72.7
		c0,0.4,0,0.8,0.1,1.3C393.9,73.3,393.9,73,393.9,72.7z"/>
	<circle class="st0" cx="140.5" cy="55.3" r="6.7"/>
	<path class="st0" d="M134.7,16.1c-0.5,0.3-1.2,0.4-2,0.4c-0.4,0-0.7,0-1.1-0.1c-0.4-0.1-0.7-0.1-1-0.2c-0.3-0.1-0.6-0.2-0.9-0.3
		c-0.3-0.1-0.5-0.2-0.6-0.3l-1,2.6c0.4,0.2,1,0.4,1.8,0.6c0.8,0.2,1.8,0.3,2.9,0.3c0.8,0,1.6-0.1,2.3-0.3c0.7-0.2,1.3-0.5,1.8-0.9
		c0.5-0.4,0.9-0.9,1.1-1.5c0.3-0.6,0.4-1.3,0.4-2.1c0-0.8-0.2-1.5-0.5-2c-0.3-0.5-0.8-1-1.3-1.4c-0.5-0.4-1.1-0.7-1.7-0.9
		c-0.6-0.3-1.2-0.5-1.7-0.8c-0.5-0.2-0.9-0.5-1.3-0.8c-0.3-0.3-0.5-0.7-0.5-1.1c0-0.5,0.2-0.8,0.6-1.1c0.4-0.3,0.9-0.4,1.6-0.4
		c0.7,0,1.4,0.1,2.1,0.3c0.6,0.2,1.1,0.4,1.4,0.6l0.9-2.5c-0.5-0.3-1.2-0.5-1.9-0.7c-0.8-0.2-1.6-0.2-2.5-0.2
		c-0.8,0-1.5,0.1-2.1,0.3c-0.6,0.2-1.2,0.4-1.6,0.8c-0.5,0.4-0.8,0.8-1.1,1.4c-0.2,0.5-0.4,1.2-0.4,1.9c0,0.9,0.2,1.6,0.5,2.1
		c0.3,0.6,0.8,1,1.3,1.4c0.5,0.4,1.1,0.7,1.7,0.9c0.6,0.3,1.2,0.5,1.7,0.7c0.5,0.2,0.9,0.5,1.3,0.8c0.3,0.3,0.5,0.7,0.5,1.1
		C135.4,15.3,135.1,15.8,134.7,16.1z"/>
	<polygon class="st0" points="144.3,18.8 147.3,18.8 147.3,6.2 151.7,6.2 151.7,3.6 139.8,3.6 139.8,6.2 144.3,6.2 	"/>
	<polygon class="st0" points="163,16.2 156.8,16.2 156.8,12.4 162.3,12.4 162.3,9.8 156.8,9.8 156.8,6.2 162.9,6.2 162.9,3.6 
		153.8,3.6 153.8,18.8 163,18.8 	"/>
	<path class="st0" d="M168.8,13.6c0.1,0,0.2,0,0.4,0c0.2,0,0.3,0,0.5,0c0.2,0,0.3,0,0.5,0s0.3,0,0.3,0c0.8,0,1.5-0.1,2.2-0.3
		c0.7-0.2,1.3-0.5,1.9-0.9c0.6-0.4,1-1,1.3-1.6c0.3-0.7,0.5-1.5,0.5-2.4c0-1.1-0.2-1.9-0.6-2.6c-0.4-0.7-0.9-1.2-1.5-1.5
		c-0.6-0.4-1.3-0.6-2.1-0.7c-0.8-0.1-1.5-0.2-2.3-0.2c-0.7,0-1.5,0-2.2,0.1c-0.7,0.1-1.4,0.2-2,0.3v15.1h3V13.6z M168.8,6
		c0.2,0,0.4-0.1,0.6-0.1c0.3,0,0.5,0,0.8,0c0.4,0,0.7,0,1.1,0.1c0.4,0.1,0.7,0.2,1,0.4c0.3,0.2,0.5,0.4,0.7,0.8s0.3,0.7,0.3,1.2
		c0,0.6-0.1,1-0.3,1.4c-0.2,0.3-0.4,0.6-0.7,0.8c-0.3,0.2-0.7,0.3-1,0.4c-0.4,0.1-0.8,0.1-1.2,0.1c-0.1,0-0.1,0-0.3,0s-0.3,0-0.4,0
		c-0.1,0-0.3,0-0.4,0c-0.1,0-0.2,0-0.3,0V6z"/>
	<polygon class="st0" points="181.8,12.4 187.4,12.4 187.4,18.8 190.3,18.8 190.3,3.6 187.4,3.6 187.4,9.8 181.8,9.8 181.8,3.6 
		178.8,3.6 178.8,18.8 181.8,18.8 	"/>
	<polygon class="st0" points="202.7,16.2 196.5,16.2 196.5,12.4 202,12.4 202,9.8 196.5,9.8 196.5,6.2 202.6,6.2 202.6,3.6 
		193.5,3.6 193.5,18.8 202.7,18.8 	"/>
	<polygon class="st0" points="208.3,10.9 207.9,8.5 208.1,8.5 209.3,10.9 215,18.9 217.2,18.9 217.2,3.6 214.3,3.6 214.3,11.6 
		214.7,13.9 214.6,13.9 213.4,11.6 207.6,3.4 205.5,3.4 205.5,18.8 208.3,18.8 	"/>
</g>
<g id="Layer_5">
</g>
</svg>
